<?xml version="1.0" standalone="yes"?>
<svg xmlns="http://www.w3.org/2000/svg" width="500" height="500">
<path style="fill:#014bad; stroke:none;" d="M0 0L0 500L500 500L500 0L0 0z"/>
<path style="fill:#7c9db9; stroke:none;" d="M81 121L81 122L90 123L81 121M79 121L80 122L79 121z"/>
<path style="fill:#fdf9ed; stroke:none;" d="M159 221L224 221C229.467 221 242.991 223.462 247.397 219.972C250.073 217.853 249 211.98 249 209C249 198.991 252.218 182.369 248.397 173.108C246.853 169.368 241.923 168.221 239.001 165.775C234.005 161.594 221.673 142.967 214 153L201 145L181 150L180 150C175.657 146.583 172.006 148.414 167 148.172C158.29 147.751 150.618 144.648 146 137C138.499 138.952 122.872 135.397 119 128C107.789 126 93.8555 120.181 82.0154 121.562C77.4376 122.096 72.1142 128.972 73.7083 133.725C74.9447 137.412 81.0386 138.178 83.6968 140.637C86.5375 143.265 85.6273 148.706 88.5849 150.708C95.8698 155.637 108.169 154.316 116 158.178C119.251 159.782 125.842 163.21 127.91 166.183C130.041 169.245 129.46 173.726 132.433 176.258C136.443 179.674 142.683 178.344 146.775 182.278C152.293 187.582 151.816 196.141 153.529 203C155.129 209.412 158.701 214.135 159 221z"/>
<path style="fill:#7c9db9; stroke:none;" d="M77 122L78 123L77 122M105.667 122.333L106.333 122.667L105.667 122.333M76.3333 123.667L76.6667 124.333L76.3333 123.667M92 123L92 124L98 124L92 123M103.667 123.333L104.333 123.667L103.667 123.333M108 123L109 124L108 123M98 124L99 125L98 124M109.667 124.333L110.333 124.667L109.667 124.333M75.3333 125.667L75.6667 126.333L75.3333 125.667M99 125L99 126L103 126L99 125M111 125L112 126L111 125M113 126L114 127L113 126M74.3333 127.667L74.6667 128.333L74.3333 127.667M115 127L116 128L115 127M73.3333 129.667L73.6667 130.333L73.3333 129.667M119 129L121 132L119 129M72 132L74 136L72 132M121.667 132.333L122.333 132.667L121.667 132.333M124.667 132.333L125.333 132.667L124.667 132.333M126 133L127 134L126 133M127 134L127 136L129 136L127 134M131 134L131 135L134 135L131 134M130 135L131 136L130 135M134.667 135.333L135.333 135.667L134.667 135.333M75.6667 136.333L76.3333 136.667L75.6667 136.333M136 136L137 137L136 136M77.6667 137.333L78.3333 137.667L77.6667 137.333M138.667 137.333L139.333 137.667L138.667 137.333M143 137L144 138L143 137M146 137L147 138L146 137M79.6667 138.333L80.3333 138.667L79.6667 138.333M140 138L140 139L143 139L140 138M81.6667 139.333L82.3333 139.667L81.6667 139.333M147.333 139.667L147.667 140.333L147.333 139.667M84 140L85 141L84 140M85 141L85 144L86 144L85 141M148.667 141.333L149.333 141.667L148.667 141.333M150 142L151 143L150 142M151.667 143.333L152.333 143.667L151.667 143.333M153 144L154 145L153 144M199 144L200 145L199 144M86 145L86 150L87 150L86 145M154 145L155 146L154 145M170 145L170 148L173 147L173 146L170 145M196 147L199 146L196 147M201 145L202 146L201 145M155 146L155 147L158 147L155 146M159 146L160 147L159 146M163 146L164 147L163 146M189 146L190 147L189 146M202.333 146.667L202.667 147.333L202.333 146.667M161.667 147.333L162.333 147.667L161.667 147.333M164 147L165 148L164 147M174 147L174 148L179 148L174 147M184 147L184 148L188 148L184 147M191 147L192 148L191 147M193 147L194 148L193 147M166 148L166 149L170 149L166 148M179 148L180 149L179 148M181 148L182 149L181 148M203.667 148.333L204.333 148.667L203.667 148.333M180 149L181 150L180 149M206 149L207 150L206 149M218.667 149.333L219.333 149.667L218.667 149.333M92 150L93 151L92 150M207 150L207 151L210 151L207 150M214 150L214 151L217 151L214 150M220 150L220 151L225 151L220 150M87.6667 151.333L88.3333 151.667L87.6667 151.333M91 151L92 152L91 151M94 151L95 152L94 151M210 151L211 152L210 151M213 151L212 153L213 151M89.6667 152.333L90.3333 152.667L89.6667 152.333M95 152L96 153L95 152z"/>
<path style="fill:#014bad; stroke:none;" d="M213 152L214 153L213 152z"/>
<path style="fill:#7c9db9; stroke:none;" d="M225.667 152.333L226.333 152.667L225.667 152.333M96.6667 153.333L97.3333 153.667L96.6667 153.333M99 153L100 154L99 153M227.333 153.667L227.667 154.333L227.333 153.667M100 154L101 155L100 154M101 155L102 156L101 155M228 155L228 156L231 156L228 155M102 156L102 157L105 157L102 156M107 156L108 157L107 156M231 156L232 160L233 160L231 156M109 157L110 158L109 157M114.667 157.333L115.333 157.667L114.667 157.333M117 158L118 159L117 158M118 159L119 160L118 159M119 160L120 161L119 160M233 160L234 161L233 160M120 161L121 162L120 161M234 161L235 162L234 161M121 162L122 163L121 162M235 162L236 163L235 162M122 163L123 164L122 163M124 163L124 164L127 164L124 163M236 163L237 164L236 163M123 164L124 165L123 164M127 164L128 165L127 164M237 164L238 165L237 164M238 165L239 166L238 165M128.333 166.667L128.667 167.333L128.333 166.667M239 166L240 167L239 166M240 167L241 168L240 167M242.667 168.333L243.333 168.667L242.667 168.333M129 169L129 172L130 172L129 169M245.667 169.333L246.333 169.667L245.667 169.333M247 170L248 171L247 170M248 171L249 172L248 171z"/>
<path style="fill:#fe0808; stroke:none;" d="M249 171L249 206C249 209.843 250.208 216.332 247.972 219.682C244.821 224.404 231.016 222 226 222L159 222L162 228L165 225L165 237L226 237L247.397 238.603L249 253L249 292L255 297L265 297L265 254C265 249.938 263.463 241.744 266.603 238.603C271.857 233.349 293.764 237 301 237L399 237L395 236C392.68 232.783 389.557 233.683 386.594 231.416C382.23 228.077 377.438 223.825 372 222.178C365.185 220.115 355.158 222 348 222L296 222C288.952 222 273.271 224.945 267.318 220.972C263.563 218.466 265 210.854 265 207C265 191.601 269.965 171.447 249 171z"/>
<path style="fill:#7c9db9; stroke:none;" d="M130.333 174.667L130.667 175.333L130.333 174.667M131 176L132 177L131 176M133 177L134 178L133 177M139 178L140 179L139 178z"/>
<path style="fill:#f15e64; stroke:none;" d="M265 178L265 209C265 212.122 263.954 217.779 266.028 220.397C269.475 224.749 286.761 222 292 222L370 222L370 221L266 221C266 208.781 269.71 189.226 265 178z"/>
<path style="fill:#fdf9ed; stroke:none;" d="M266 178L266 221L369 221C369.889 216.647 371.565 214.701 376 214L378 202C374.289 200.233 370.103 197.218 366 196.704C362.615 196.279 358.488 198.198 355.274 196.687C351.817 195.061 350.444 189.833 347.56 187.333C339.902 180.692 328.96 180.9 326 191L324 191C317.671 166.887 291.969 196.424 278.83 194.558C266.877 192.86 275.565 183.18 266 178z"/>
<path style="fill:#7c9db9; stroke:none;" d="M267 178L268 179L267 178M140 179L140 180L143 180L140 179M268.667 179.333L269.333 179.667L268.667 179.333M143 180L143 181L146 181L143 180M270.667 180.333L271.333 180.667L270.667 180.333M146 181L147 182L146 181M272 181L273 182L272 181M309 181L309 182L320 182L309 181M330 181L330 182L335 182L330 181M147 182L148 183L147 182M273 182L273 185L274 185L273 182M308 182L309 183L308 182M321 182L322 183L321 182M329 182L330 183L329 182M148 183L149 184L148 183M302 183L303 184L302 183M306 183L307 184L306 183M322.333 183.667L322.667 184.333L322.333 183.667M328 183L329 184L328 183M299.667 184.333L300.333 184.667L299.667 184.333M337.667 184.333L338.333 184.667L337.667 184.333M344.667 184.333L345.333 184.667L344.667 184.333M149.333 185.667L149.667 186.333L149.333 185.667M272.333 185.667L272.667 186.333L272.333 185.667M297.667 185.333L298.333 185.667L297.667 185.333M327 185L328 186L327 185M339 185L339 186L343 186L339 185M346 185L347 186L346 185M296.333 186.667L296.667 187.333L296.333 186.667M323 186L323 190L324 190L323 186M271 187L272 188L271 187M150.333 188.667L150.667 189.333L150.333 188.667M270 188L271 189L270 188M326.333 188.667L326.667 189.333L326.333 188.667M348 188L349 189L348 188M269.333 189.667L269.667 190.333L269.333 189.667M295 189L296 190L295 189M349 189L350 190L349 189M293.667 190.333L294.333 190.667L293.667 190.333M324.667 190.333L325.333 190.667L324.667 190.333M350 190L351 191L350 190M151 191L151 195L152 195L151 191M270 191L271 192L270 191M287 191L287 192L292 192L287 191M284 192L285 193L284 192M274 193L274 194L277 194L274 193M283 193L284 194L283 193M352 193L353 194L352 193M278.667 194.333L279.333 194.667L278.667 194.333M282 194L283 195L282 194M281 195L282 196L281 195M353.333 195.667L353.667 196.333L353.333 195.667M366 195L367 196L366 195M152 196L152 199L153 199L152 196z"/>
<path style="fill:#f15e64; stroke:none;" d="M219 196L219 197L224 197L219 196M290 196L290 197L295 197L290 196z"/>
<path style="fill:#7c9db9; stroke:none;" d="M357 196L357 197L365 197L357 196M367 196L368 197L367 196z"/>
<path style="fill:#fe0808; stroke:none;" d="M219 197L219 202L214 202L214 206L220 207L219 212L224 211L223 206L229 206L229 202L223 202L224 197L219 197M290 197L291 202L285 202L285 206L291 206L290 211C294.025 211.616 294.705 209.799 295 206L300 206L300 202L295 202L295 197L290 197z"/>
<path style="fill:#7c9db9; stroke:none;" d="M354 197L354 198L357 198L354 197M369 197L370 198L369 197z"/>
<path style="fill:#f15e64; stroke:none;" d="M223 198L223 202L224 202L223 198M290 198L290 202L291 202L290 198z"/>
<path style="fill:#7c9db9; stroke:none;" d="M370 198L371 199L370 198M372 199L373 200L372 199M374 200L374 201L377 201L374 200z"/>
<path style="fill:#f15e64; stroke:none;" d="M213 201L213 207L219 207L219 206L214 206L217 202L213 201M218 201L219 202L218 201M226 201L226 202L229 202L226 201M285 201L285 202L288 202L285 201M298 201L298 202L300 206L295 206L295 207L301 207L301 201L298 201z"/>
<path style="fill:#7c9db9; stroke:none;" d="M377 201L378 202L377 201z"/>
<path style="fill:#f15e64; stroke:none;" d="M229 202L230 203L229 202z"/>
<path style="fill:#7c9db9; stroke:none;" d="M153 203L155 207L153 203M377.333 203.667L377.667 204.333L377.333 203.667z"/>
<path style="fill:#f15e64; stroke:none;" d="M229 205L230 206L229 205M223 206L223 210L224 210L224 207L229 207L223 206M285 206L285 207L290 210L291 210L291 206L285 206z"/>
<path style="fill:#7c9db9; stroke:none;" d="M376 206L377 207L376 206z"/>
<path style="fill:#f15e64; stroke:none;" d="M219 207L220 208L219 207z"/>
<path style="fill:#7c9db9; stroke:none;" d="M375 207L375 212L376 212L375 207M155 208L156 209L155 208M156 209L157 210L156 209M157.333 211.667L157.667 212.333L157.333 211.667z"/>
<path style="fill:#f15e64; stroke:none;" d="M223 211L224 212L223 211M290 211L291 212L290 211M294 211L295 212L294 211z"/>
<path style="fill:#7c9db9; stroke:none;" d="M371 214L371 215L376 215L371 214M158 215L158 221L159 221L158 215M370 215L371 216L370 215M369 217L369 221L370 221L369 217z"/>
<path style="fill:#f15e64; stroke:none;" d="M248 220L249 221L248 220M159 221L159 222L248 222L221 221L159 221z"/>
<path style="fill:#014bad; stroke:none;" d="M162 228L165 225L162 228z"/>
<path style="fill:#f15e64; stroke:none;" d="M162 228L163 229L162 228M265 296L266 296L266 238L369 238C376.476 238 399.057 241.657 404 236C370.945 241.112 334.438 237 301 237L275 237C272.383 237.001 267.891 236.25 266.028 238.603C263.456 241.85 265 250.071 265 254L265 296z"/>
<path style="fill:#fe0808; stroke:none;" d="M400 236L400 237L403 237L400 236z"/>
<path style="fill:#f15e64; stroke:none;" d="M165 237L165 238L225 238C231.626 238 242.566 235.884 248 240C248.804 235.123 232.557 237 229 237L165 237z"/>
<path style="fill:#7c9db9; stroke:none;" d="M404 237L413 243L404 237M165 238L165 244L166 244L165 238z"/>
<path style="fill:#fdf9ed; stroke:none;" d="M166 238C166 246.556 165.738 256.702 157 261L159 266L156 265L154 269C166.809 275.376 173.036 269.45 186 270.21C192.672 270.601 198.421 274.341 205 275C208.701 264.835 212.672 265.486 222 264L221 272L224 270L225 270C228.996 275.843 233.941 282.077 241 284L239 288L243 293C253.607 292.154 249 260.566 249 252C249 248.583 250.286 241.478 247.258 239.028C243.225 235.765 231.014 238 226 238L166 238M266 238L266 278C266 282.821 264.582 290.378 266.603 294.836C268.371 298.736 291.421 293.49 293 289C300.71 290.562 325.087 296.722 326 285L334 288C338.632 282.677 350.108 272.214 357 276L358 276C362.28 275.25 365.004 276.963 368 280L376 281L376 282L373 283C376.783 295.852 392.035 290.504 401 293.077C405.972 294.504 409.097 299.107 414.015 300.552C417.221 301.494 421.84 299.772 423.415 296.701C432.763 278.479 411.013 279.056 405.306 265.999C403.229 261.249 403.1 255.703 405.937 251.17C407.595 248.521 413.133 245.134 410.338 241.549C404.552 234.129 382.336 238 374 238L266 238z"/>
<path style="fill:#7c9db9; stroke:none;" d="M411 245L412 246L411 245z"/>
<path style="fill:#f15e64; stroke:none;" d="M219 246L219 247L224 248L219 246M290 246L290 247L296 248L290 246z"/>
<path style="fill:#7c9db9; stroke:none;" d="M410 246L411 247L410 246M165 247L165 250L166 250L165 247z"/>
<path style="fill:#fe0808; stroke:none;" d="M219 247L219 253L214 252L214 257L219 256L220 257L219 262L223 262L224 256L229 257L229 253L223 253L224 248L219 247M290 247L291 253L285 252L285 257L290 256L290 262L295 262L295 256L300 257L300 252L295 253L295 247L290 247z"/>
<path style="fill:#7c9db9; stroke:none;" d="M409 247L410 248L409 247z"/>
<path style="fill:#f15e64; stroke:none;" d="M290 248L290 252L286 252L286 253L291 253L290 248z"/>
<path style="fill:#7c9db9; stroke:none;" d="M408 248L409 249L408 248z"/>
<path style="fill:#f15e64; stroke:none;" d="M223 249L223 253L230 254L223 249z"/>
<path style="fill:#7c9db9; stroke:none;" d="M406.667 249.333L407.333 249.667L406.667 249.333M405 250L405 254L406 254L405 250M164.333 251.667L164.667 252.333L164.333 251.667z"/>
<path style="fill:#f15e64; stroke:none;" d="M213 252L213 257L214 257L213 252M215 252L215 253L219 253L215 252M295 252L295 253L299 253L295 252M300 252L300 257L301 257L300 252z"/>
<path style="fill:#7c9db9; stroke:none;" d="M163 254L164 255L163 254M404 254L404 257L405 257L404 254z"/>
<path style="fill:#f15e64; stroke:none;" d="M229.333 255.667L229.667 256.333L229.333 255.667z"/>
<path style="fill:#7c9db9; stroke:none;" d="M162 256L163 257L162 256z"/>
<path style="fill:#f15e64; stroke:none;" d="M218 256L219 257L218 256M224 256L225 257L224 256M289 256L290 257L289 256M295 256L296 257L295 256z"/>
<path style="fill:#7c9db9; stroke:none;" d="M161.333 257.667L161.667 258.333L161.333 257.667z"/>
<path style="fill:#f15e64; stroke:none;" d="M214 257L215 258L214 257M219 257L220 258L219 257M223 257L223 262L219 262L219 263L224 263L223 257M228 257L229 258L228 257M285 257L286 258L285 257M290 257L290 261L291 261L290 257M299 257L300 258L299 257z"/>
<path style="fill:#7c9db9; stroke:none;" d="M403 258L404 259L403 258M160 259L161 260L160 259M157 260L157 261L160 261L157 260M403.333 260.667L403.667 261.333L403.333 260.667M156 261L155 266L159 266L156 261z"/>
<path style="fill:#f15e64; stroke:none;" d="M290 262L290 263L295 263L290 262z"/>
<path style="fill:#7c9db9; stroke:none;" d="M404.333 262.667L404.667 263.333L404.333 262.667M211 264L211 265L214 265L211 264M216.667 264.333L217.333 264.667L216.667 264.333M220 264L221 268L222 268L220 264M405 264L405 268L406 268L405 264M209.667 265.333L210.333 265.667L209.667 265.333M219 265L220 266L219 265M154 267L155 268L154 267M208 267L209 268L208 267M220 268L221 269L220 268M406 268L407 269L406 268M154.667 269.333L155.333 269.667L154.667 269.333M174 269L174 270L177 270L174 269M207.333 269.667L207.667 270.333L207.333 269.667M156 270L157 271L156 270M173 270L174 271L173 270M177 270L178 271L177 270M181 270L181 271L189 271L181 270M220.333 270.667L220.667 271.333L220.333 270.667M224 270L225 271L224 270M407 270L408 271L407 270M157.667 271.333L158.333 271.667L157.667 271.333M161.667 271.333L162.333 271.667L161.667 271.333M172 271L173 272L172 271M178 271L178 272L181 272L178 271M189 271L189 272L194 272L189 271M206 271L207 272L206 271M223 271L224 272L223 271M225 271L226 272L225 271M408 271L409 272L408 271M159 272L160 273L159 272M163 272L164 273L163 272M171.333 272.667L171.667 273.333L171.333 272.667M194.667 272.333L195.333 272.667L194.667 272.333M205 272L206 273L205 272M221.667 272.333L222.333 272.667L221.667 272.333M226 272L227 273L226 272M409.667 272.333L410.333 272.667L409.667 272.333M165.667 273.333L166.333 273.667L165.667 273.333M197.667 273.333L198.333 273.667L197.667 273.333M227 273L228 274L227 273M352.667 273.333L353.333 273.667L352.667 273.333M412 273L413 274L412 273M167 274L168 275L167 274M169.667 274.333L170.333 274.667L169.667 274.333M199.667 274.333L200.333 274.667L199.667 274.333M205 274L206 275L205 274M228 274L229 275L228 274M350 274L351 275L350 274M354.667 274.333L355.333 274.667L354.667 274.333M358 276L361 274L358 276M413 274L414 275L413 274M168 275L169 276L168 275M202 275L202 276L205 276L202 275M229 275L230 276L229 275M349 275L350 276L349 275M356 275L357 276L356 275M361 275L362 276L361 275M414 275L415 276L414 275M348 276L349 277L348 276M362.667 276.333L363.333 276.667L362.667 276.333M415.667 276.333L416.333 276.667L415.667 276.333M230 277L231 278L230 277M346.667 277.333L347.333 277.667L346.667 277.333M365 277L367 279L367 277L365 277M417 277L417 278L420 278L417 277M231 278L232 279L231 278M420 278L421 279L420 278M232 279L233 280L232 279M344 279L345 280L344 279M367 279L368 280L367 279M370 279L371 280L370 279M421.667 279.333L422.333 279.667L421.667 279.333M233.667 280.333L234.333 280.667L233.667 280.333M343 280L344 281L343 280M371 280L371 281L375 283C375 280.174 373.858 280.209 371 280M423 280L424 281L423 280M235 281L236 282L235 281M424 281L425 282L424 281M236 282L237 283L236 282M341 282L342 283L341 282M425.333 282.667L425.667 283.333L425.333 282.667M237 283L238 284L237 283M340 283L341 284L340 283M238 284L238 285L240 287L241 287L238 284M337 284L337 285L340 285L337 284M372.333 284.667L372.667 285.333L372.333 284.667M326 285L327 286L326 285M335.667 285.333L336.333 285.667L335.667 285.333M426 285L427 286L426 285M327 286L328 287L327 286M334.333 286.667L334.667 287.333L334.333 286.667M373 286L374 287L373 286M427 286L428 287L427 286M237 288L237 289L241 289L237 288M329.667 287.333L330.333 287.667L329.667 287.333M374 287L375 288L374 287M426 287L426 290L427 290L426 287M375.667 288.333L376.333 288.667L375.667 288.333M241 289L242 290L241 289M293 291L298 291L293 291M317 289L318 290L317 289M325 290L329 292L325 290M377 289L378 290L377 289M242 290L242 293L243 293L242 290M301 290L301 291L304 291L301 290M316 290L317 291L316 290M318 290L318 291L321 291L318 290M378 290L378 291L382 291L378 290M425 290L426 291L425 290z"/>
<path style="fill:#f15e64; stroke:none;" d="M248 291L249 292L248 291z"/>
<path style="fill:#7c9db9; stroke:none;" d="M298 291L298 292L301 292L298 291M304 291L305 292L304 291M315 291L316 292L315 291M321 291L321 292L324 292L321 291M383 291L384 292L383 291M424 291L424 296L425 296L424 291M248 292L249 293L248 292z"/>
<path style="fill:#f15e64; stroke:none;" d="M251 292L252 293L251 292z"/>
<path style="fill:#7c9db9; stroke:none;" d="M291.667 292.333L292.333 292.667L291.667 292.333M306 292L307 293L306 292M309 292L309 293L315 293L309 292M384 292L385 293L384 292M395 292L395 293L400 293L395 292M243 293L243 294L247 294L243 293M284.667 293.333L285.333 293.667L284.667 293.333M386 293L386 294L392 294L386 293M394 293L395 294L394 293M402 293L403 294L402 293M275 294L275 295L284 295L275 294M405 294L406 295L405 294M273.667 295.333L274.333 295.667L273.667 295.333M406 295L407 296L406 295M265.667 296.333L266.333 296.667L265.667 296.333M272 296L273 297L272 296M407 296L408 297L407 296M267 297L268 298L267 297M270 297L271 298L270 297M408 297L409 298L408 297M269 298L270 299L269 298M423 298L424 299L423 298M409 299L409 300L413 300L409 299M419 299L419 300L423 300L419 299M413 300L414 301L413 300M418 300L419 301L418 300M414 301L415 302L414 301M417 301L418 302L417 301M415.667 302.333L416.333 302.667L415.667 302.333M117 328L116 330L117 328z"/>
<path style="fill:#fdf9ed; stroke:none;" d="M137 329C135.225 341.066 130.23 352.84 123.56 362.996C121.759 365.738 116.546 372.842 112.604 369.342C106.284 363.731 117.467 341.722 120.289 336C121.324 333.9 123.311 327.008 118.168 329.176C108.449 333.274 105.737 358.141 106.015 367C106.185 372.388 109.445 379.061 116 377.253C128.55 373.792 135.709 355.049 139.254 344C140.99 338.588 144.463 330.629 137 329z"/>
<path style="fill:#7c9db9; stroke:none;" d="M121 328L122 329L121 328M192 328L190 334L191 334L192 328z"/>
<path style="fill:#fdf9ed; stroke:none;" d="M193 328C187.603 339.538 173.764 361.563 179 374L181 374L185 363L186 363C189.188 370.388 195.06 378.747 202 370C195.598 367.881 193.602 365.247 191 359C192.438 358.379 204.419 350.724 197.808 350.255C194.602 350.027 190.771 353.628 188 355C189.961 348.142 201.486 332.695 193 328z"/>
<path style="fill:#7c9db9; stroke:none;" d="M195 328L196 329L195 328M331 328L332 329L331 328z"/>
<path style="fill:#fdf9ed; stroke:none;" d="M336 356C334.712 360.46 326.08 376.347 319.607 370.353C316.522 367.497 319.295 360.379 320.13 357C321.934 349.708 325.66 337.137 334.001 334.851C337.061 334.012 339.097 336.292 341.941 336.647C344.165 336.925 345.741 335.256 344.824 333.063C341.898 326.066 330.822 327.66 326.3 331.558C318.193 338.546 305.843 365.997 315.434 375.566C325.038 385.15 342.155 365.884 340.837 356.015C340.211 351.329 332.332 347.162 328.752 351.584C325.48 355.625 334.109 355.978 336 356z"/>
<path style="fill:#7c9db9; stroke:none;" d="M338.667 328.333L339.333 328.667L338.667 328.333M122 329L123 330L122 329M140 329L141 330L140 329M196 329L197 330L196 329M328 329L329 330L328 329M341 329L342 330L341 329M136 330L136 333L137 333L136 330M327 330L328 331L327 330M343 330L344 331L343 330M115 331L116 332L115 331M142 331L142 334L143 334L142 331M197 331L198 332L197 331M344 331L345 332L344 331M114 332L115 333L114 332M122 332L123 333L122 332M345 332L346 333L345 332M121.333 333.667L121.667 334.333L121.333 333.667M324 333L325 334L324 333M113.333 334.667L113.667 335.333L113.333 334.667M135.333 334.667L135.667 335.333L135.333 334.667M196.333 334.667L196.667 335.333L196.333 334.667M323 334L324 335L323 334M333 334L334 335L333 334M337 334L338 335L337 334M346 334L347 335L346 334M120 335L121 336L120 335M141 335L141 338L142 338L141 335M189.333 335.667L189.667 336.333L189.333 335.667M322 335L323 336L322 335M331 335L332 336L331 335M339 335L340 336L339 335M112.333 336.667L112.667 337.333L112.333 336.667M195.333 336.667L195.667 337.333L195.333 336.667M321.333 336.667L321.667 337.333L321.333 336.667M330 336L331 337L330 336M340 336L341 337L340 336M345 336L346 337L345 336M119 337L120 338L119 337M134 337L134 340L135 340L134 337M188.333 337.667L188.667 338.333L188.333 337.667M329 337L330 338L329 337M341 337L342 338L341 337M343.667 337.333L344.333 337.667L343.667 337.333M111.333 338.667L111.667 339.333L111.333 338.667M320 338L321 339L320 338M328 338L329 339L328 338M118 339L119 340L118 339M140 339L140 342L141 342L140 339M187.333 339.667L187.667 340.333L187.333 339.667M194.333 339.667L194.667 340.333L194.333 339.667M327 339L328 340L327 339M319 340L320 341L319 340M110.333 341.667L110.667 342.333L110.333 341.667M117.333 341.667L117.667 342.333L117.333 341.667M133.333 341.667L133.667 342.333L133.333 341.667M193.333 341.667L193.667 342.333L193.333 341.667M326 341L327 342L326 341M186.333 342.667L186.667 343.333L186.333 342.667M318 342L319 343L318 342M325.333 342.667L325.667 343.333L325.333 342.667M109 343L109 346L110 346L109 343M116 343L116 346L117 346L116 343M139.333 343.667L139.667 344.333L139.333 343.667M192.333 343.667L192.667 344.333L192.333 343.667M132 344L132 347L133 347L132 344M185.333 344.667L185.667 345.333L185.333 344.667M317.333 344.667L317.667 345.333L317.333 344.667M324.333 344.667L324.667 345.333L324.333 344.667M191.333 345.667L191.667 346.333L191.333 345.667M108 346L108 349L109 349L108 346M115 346L115 349L116 349L115 346M138.333 346.667L138.667 347.333L138.333 346.667M316.333 346.667L316.667 347.333L316.333 346.667M323.333 346.667L323.667 347.333L323.333 346.667M131.333 347.667L131.667 348.333L131.333 347.667M184 347L185 348L184 347M251 347L250 349L251 347z"/>
<path style="fill:#fdf9ed; stroke:none;" d="M249 373C253.651 362.278 259.494 359.047 269 353L269 352C262.592 348.717 257.818 352.616 253 357L256 348C247.058 346.698 241.273 368.739 249 373z"/>
<path style="fill:#7c9db9; stroke:none;" d="M255 347L256 348L255 347M397 347L398 348L397 347z"/>
<path style="fill:#fdf9ed; stroke:none;" d="M405 366C399.717 365.125 392.244 369.908 393 361C398.603 362.318 413.088 357.593 406.243 349.653C389.446 330.167 378.393 389.459 400.892 371.571C402.832 370.028 403.881 368.138 405 366z"/>
<path style="fill:#7c9db9; stroke:none;" d="M403.667 347.333L404.333 347.667L403.667 347.333M137.333 348.667L137.667 349.333L137.333 348.667M190 348L191 349L190 348M395 348L396 349L395 348M405 348L406 349L405 348M107 349L107 352L108 352L107 349M114 349L114 352L115 352L114 349M183.333 349.667L183.667 350.333L183.333 349.667M197 349L198 350L197 349M199 349L200 350L199 349M315.333 349.667L315.667 350.333L315.333 349.667M322.333 349.667L322.667 350.333L322.333 349.667M393 349L394 350L393 349M130 350L131 351L130 350M189.333 350.667L189.667 351.333L189.333 350.667M195 350L196 351L195 350M200 350L201 351L200 350M249.333 350.667L249.667 351.333L249.333 350.667M255.333 350.667L255.667 351.333L255.333 350.667M262 350L263 351L262 350M267 350L268 351L267 350M328 350L329 351L328 350M337.667 350.333L338.333 350.667L337.667 350.333M392 350L393 351L392 350M407 350L408 351L407 350M136.333 351.667L136.667 352.333L136.333 351.667M182.333 351.667L182.667 352.333L182.333 351.667M193 351L194 352L193 351M259 351L260 352L259 351M321 351L321 354L322 354L321 351M327 351L328 352L327 351M339 351L340 352L339 351M391.333 351.667L391.667 352.333L391.333 351.667M129 352L130 353L129 352M188 352L190 355L188 352M192 352L193 353L192 352M200.333 352.667L200.667 353.333L200.333 352.667M248.333 352.667L248.667 353.333L248.333 352.667M254 352L253 357L254 352M258 352L259 353L258 352M314.333 352.667L314.667 353.333L314.333 352.667M340 352L341 353L340 352M398 352L395 357L396 357L398 352z"/>
<path style="fill:#014bad; stroke:none;" d="M396 357L402 352L396 357z"/>
<path style="fill:#7c9db9; stroke:none;" d="M402.333 352.667L402.667 353.333L402.333 352.667M408 352L409 353L408 352M106 353L106 356L107 356L106 353M113 353L113 356L114 356L113 353M135.333 353.667L135.667 354.333L135.333 353.667M191 353L192 354L191 353M256 353L257 354L256 353M268 353L269 354L268 353M390 353L391 354L390 353M128 354L129 355L128 354M181.333 354.667L181.667 355.333L181.333 354.667z"/>
<path style="fill:#014bad; stroke:none;" d="M188 354L189 355L188 354z"/>
<path style="fill:#7c9db9; stroke:none;" d="M199 354L200 355L199 354z"/>
<path style="fill:#014bad; stroke:none;" d="M254 354L255 355L254 354z"/>
<path style="fill:#7c9db9; stroke:none;" d="M267 354L268 355L267 354M327 354L328 355L327 354M341 354L341 360L342 360L341 354M389.333 354.667L389.667 355.333L389.333 354.667M407.333 354.667L407.667 355.333L407.333 354.667M197 355L198 356L197 355M247.333 355.667L247.667 356.333L247.333 355.667M264 355L265 356L264 355M313 355L313 358L314 358L313 355M320 355L320 358L321 358L320 355M328 355L329 356L328 355M127 356L128 357L127 356M134 356L135 357L134 356M180.333 356.667L180.667 357.333L180.333 356.667M196 356L197 357L196 356M262 356L263 357L262 356M335 356L335 359L336 359L335 356M388.333 356.667L388.667 357.333L388.333 356.667M399 356L400 357L399 356M112 357L112 361L113 361L112 357M194 357L195 358L194 357M260 357L261 358L260 357M406 357L407 358L406 357M105 358L105 372L106 372L105 358M126 358L127 359L126 358M133.333 358.667L133.667 359.333L133.333 358.667M179 358L179 361L180 361L179 358M192 358L193 359L192 358M246.333 358.667L246.667 359.333L246.333 358.667M258 358L259 359L258 358M405 358L406 359L405 358M125 359L126 360L125 359M191.333 359.667L191.667 360.333L191.333 359.667M257 359L258 360L257 359M312 359L312 372L313 372L312 359M319 359L319 362L320 362L319 359M334.333 359.667L334.667 360.333L334.333 359.667M387.333 359.667L387.667 360.333L387.333 359.667M404 359L405 360L404 359M132 360L133 361L132 360M256 360L257 361L256 360M403 360L404 361L403 360M124 361L125 362L124 361M131.333 361.667L131.667 362.333L131.333 361.667M178.333 361.667L178.667 362.333L178.333 361.667M255 361L256 362L255 361M340.333 361.667L340.667 362.333L340.333 361.667M393.667 361.333L394.333 361.667L393.667 361.333M401.667 361.333L402.333 361.667L401.667 361.333M111 362L111 366L112 366L111 362M192 362L193 363L192 362M245 362L245 365L246 365L245 362M254 362L255 363L254 362M333 362L334 363L333 362M392 362L392 366L393 366L392 362M123 363L124 364L123 363M130.333 363.667L130.667 364.333L130.333 363.667M253 363L254 364L253 363M386 363L386 367L387 367L386 363M122 364L123 365L122 364M177.333 364.667L177.667 365.333L177.333 364.667M184 364L185 365L184 364M186 364L187 365L186 364M193 364L194 365L193 364M252 364L253 365L252 364M318 364L318 371L319 371L318 364M332 364L333 365L332 364M339 364L340 365L339 364M402 364L403 365L402 364M129 365L130 366L129 365M251 365L251 368L252 368L251 365M331 365L332 366L331 365M400 365L401 366L400 365M404 365L405 366L404 365M121 366L122 367L121 366M128 366L129 367L128 366M183.333 366.667L183.667 367.333L183.333 366.667M187 366L188 367L187 366M194 366L195 367L194 366M244 366L244 371L245 371L244 366M338 366L339 367L338 366M399 366L400 367L399 366M120 367L121 368L120 367M127 367L128 368L127 367M176 367L176 371L177 371L176 367M337 367L338 368L337 367M394 367L395 368L394 367M397 367L398 368L397 367M404.333 367.667L404.667 368.333L404.333 367.667M111.333 368.667L111.667 369.333L111.333 368.667M119 368L120 369L119 368M188 368L189 369L188 368M195 368L196 369L195 368M198 368L198 369L201 369L198 368M328 368L329 369L328 368M336 368L337 369L336 368M117 369L118 370L117 369M126 369L127 370L126 369M182 369L182 373L183 373L182 369M189 369L190 370L189 369M201 369L202 370L201 369M250.333 369.667L250.667 370.333L250.333 369.667M327 369L328 370L327 369M387 369L388 370L387 369M403 369L404 370L403 369M112.667 370.333L113.333 370.667L112.667 370.333M116 370L117 371L116 370M125 370L126 371L125 370M325 370L326 371L325 370M335 370L336 371L335 370M402 370L403 371L402 370M124 371L125 372L124 371M177 371L178 372L177 371M190 371L191 372L190 371M201 371L202 372L201 371M245 371L246 372L245 371M319 371L320 372L319 371M322.667 371.333L323.333 371.667L322.667 371.333M334 371L335 372L334 371M388 371L389 372L388 371M401 371L402 372L401 371M106.333 372.667L106.667 373.333L106.333 372.667M123 372L124 373L123 372M178 372L179 373L178 372M191 372L192 373L191 372M200 372L201 373L200 372M246 372L247 373L246 372M249 372L250 373L249 372M332 372L333 373L332 372M389 372L390 373L389 372M400 372L401 373L400 372M122 373L123 374L122 373M181 373L182 374L181 373M192 373L193 374L192 373M199 373L200 374L199 373M313.333 373.667L313.667 374.333L313.333 373.667M331 373L332 374L331 373M391 373L392 374L391 373M398 373L399 374L398 373M107 374L108 375L107 374M121 374L122 375L121 374M193 374L194 375L193 374M197 374L198 375L197 374M330 374L331 375L330 374M108 375L109 376L108 375M119 375L120 376L119 375M314 375L315 376L314 375M328 375L329 376L328 375M109 376L110 377L109 376M118 376L119 377L118 376M315 376L316 377L315 376M326 376L327 377L326 376M111 377L112 378L111 377M116 377L117 378L116 377M317 377L318 378L317 377M323 377L324 378L323 377z"/>
</svg>
