<?xml version="1.0"?>
<svg version="1.1" id="圖層_1" xmlns="http://www.w3.org/2000/svg" x="0" y="0" viewBox="0 0 100 100" xml:space="preserve"><path d="M83.64 15.066c-.038 0-.074-.006-.112-.006H16.472c-1.938 0-3.728.64-5.194 1.708-2.284 1.663-3.778 4.373-3.778 7.39v34.944c0 4.955 4.017 8.846 8.972 8.846h43.756c2.117 8.5 7.991 14.439 16.216 16.992V67.949h7.083c4.955 0 8.972-3.891 8.972-8.846V24.158c.001-4.917-3.956-9.03-8.859-9.092z" fill="#abbd81"/><g><circle cx="28" cy="41.5" r="5.5" fill="#f5e6c8"/><circle cx="50" cy="41.5" r="5.5" fill="#fcedce"/><circle cx="72" cy="41.5" r="5.5" fill="#fff2d9"/></g><metadata xmlns:d="https://loading.io/stock/"><d:name>talk</d:name><d:tags>sending,typing,say,speak,word,talk,conversation</d:tags><d:license>pro</d:license><d:slug>cyh05h</d:slug></metadata></svg>