<?xml version="1.0"?><svg version="1.1" id="Layer_1" xmlns="http://www.w3.org/2000/svg" x="0" y="0" viewBox="0 0 100 100" xml:space="preserve"><path d="M78.129 62.934H50.612v-16.92c0-5.853 4.745-10.598 10.598-10.598h6.321c5.853 0 10.598 4.745 10.598 10.598v16.92z" fill="#e0e0e0" stroke="#333" stroke-width="3.5" stroke-miterlimit="10"/><circle cx="64.371" cy="28.537" r="10.632" fill="#f4e6c8" stroke="#333" stroke-width="3.5" stroke-miterlimit="10"/><path d="M49.388 62.934H21.871v-16.92c0-5.853 4.745-10.598 10.598-10.598h6.321c5.853 0 10.598 4.745 10.598 10.598v16.92z" fill="#e0e0e0" stroke="#333" stroke-width="3.5" stroke-miterlimit="10"/><circle cx="35.629" cy="28.537" r="10.632" fill="#f4e6c8" stroke="#333" stroke-width="3.5" stroke-miterlimit="10"/><path d="M63.759 82.095H36.241v-16.92c0-5.853 4.745-10.598 10.598-10.598h6.321c5.853 0 10.598 4.745 10.598 10.598v16.92z" fill="#e0e0e0" stroke="#333" stroke-width="3.5" stroke-miterlimit="10"/><circle cx="50" cy="47.698" r="10.632" fill="#f4e6c8" stroke="#333" stroke-width="3.5" stroke-miterlimit="10"/><path d="M35.017 82.095H7.5v-16.92c0-5.853 4.745-10.598 10.598-10.598h6.321c5.853 0 10.598 4.745 10.598 10.598v16.92z" fill="#e0e0e0" stroke="#333" stroke-width="3.5" stroke-miterlimit="10"/><circle cx="21.259" cy="47.698" r="10.632" fill="#f4e6c8" stroke="#333" stroke-width="3.5" stroke-miterlimit="10"/><path d="M92.5 82.095H64.983v-16.92c0-5.853 4.745-10.598 10.598-10.598h6.321c5.853 0 10.598 4.745 10.598 10.598v16.92z" fill="#e0e0e0" stroke="#333" stroke-width="3.5" stroke-miterlimit="10"/><circle cx="78.741" cy="47.698" r="10.632" fill="#f4e6c8" stroke="#333" stroke-width="3.5" stroke-miterlimit="10"/><metadata xmlns:d="https://loading.io/stock/">
<d:name>crowdsourcing</d:name>
<d:tags>crowdsourcing,collaboration,cowork,crowd,participate,grassroot,together,people,citizen</d:tags>
<d:license>by</d:license>
<d:slug>ha2r7j</d:slug>
</metadata></svg>