<?xml version="1.0"?>
<svg version="1.1" id="圖層_1" xmlns="http://www.w3.org/2000/svg" x="0" y="0" viewBox="0 0 100 100" xml:space="preserve"><g><path d="M44.005 11.841c-9.152 0-16.598 7.446-16.598 16.598s7.446 16.599 16.598 16.599 16.599-7.446 16.599-16.599c-.001-9.152-7.447-16.598-16.599-16.598z" fill="#f8b26a"/><path d="M44.005 8.532c-10.977 0-19.906 8.93-19.906 19.906s8.93 19.907 19.906 19.907c10.977 0 19.907-8.931 19.907-19.907S54.981 8.532 44.005 8.532zm0 36.505c-9.152 0-16.598-7.446-16.598-16.599 0-9.152 7.446-16.598 16.598-16.598s16.599 7.446 16.599 16.598c-.001 9.153-7.447 16.599-16.599 16.599z" fill="#f5e6c8"/><path d="M45.594 26.565c-2.413-.908-3.406-1.504-3.406-2.44 0-.795.596-1.59 2.441-1.59 1.013 0 1.845.161 2.516.36.88.262 1.799-.283 2.027-1.173a1.649 1.649 0 0 0-1.193-2.001c-.703-.185-1.54-.319-2.556-.365V18.25a1.391 1.391 0 0 0-2.782 0v1.305c-3.037.596-4.797 2.554-4.797 5.052 0 2.753 2.072 4.172 5.109 5.194 2.101.71 3.008 1.391 3.008 2.469 0 1.136-1.107 1.76-2.724 1.76a9.576 9.576 0 0 1-3.07-.527c-.901-.307-1.876.189-2.112 1.111l-.034.133a1.638 1.638 0 0 0 1.069 1.966c.987.324 2.186.555 3.409.609v1.306c0 .768.623 1.391 1.391 1.391h.001c.768 0 1.391-.623 1.391-1.391v-1.505c3.263-.568 5.052-2.724 5.052-5.251.001-2.553-1.362-4.114-4.74-5.307z" fill="#f5e6c8"/></g><g><path d="M72.593 19.141c-9.152 0-16.598 7.446-16.598 16.598s7.446 16.599 16.598 16.599 16.599-7.446 16.599-16.599c-.001-9.152-7.447-16.598-16.599-16.598z" fill="#f8b26a"/><path d="M72.593 15.833c-10.977 0-19.906 8.93-19.906 19.906s8.93 19.907 19.906 19.907c10.977 0 19.907-8.931 19.907-19.907s-8.931-19.906-19.907-19.906zm0 36.505c-9.152 0-16.598-7.446-16.598-16.599 0-9.152 7.446-16.598 16.598-16.598s16.599 7.446 16.599 16.598c-.001 9.152-7.447 16.599-16.599 16.599z" fill="#f5e6c8"/><path d="M74.182 33.865c-2.412-.908-3.406-1.504-3.406-2.44 0-.795.596-1.59 2.441-1.59 1.013 0 1.845.161 2.516.36.88.262 1.799-.283 2.027-1.173a1.649 1.649 0 0 0-1.193-2.001c-.703-.185-1.54-.319-2.556-.365V25.55a1.391 1.391 0 0 0-2.782 0v1.305c-3.037.596-4.797 2.554-4.797 5.052 0 2.753 2.072 4.172 5.109 5.194 2.101.71 3.008 1.391 3.008 2.469 0 1.136-1.107 1.76-2.724 1.76a9.576 9.576 0 0 1-3.07-.527c-.901-.307-1.876.189-2.112 1.111l-.034.133a1.638 1.638 0 0 0 1.069 1.966c.987.324 2.186.555 3.409.609v1.306c0 .768.623 1.391 1.391 1.391h.001c.768 0 1.391-.623 1.391-1.391v-1.505c3.263-.568 5.052-2.724 5.052-5.251.001-2.553-1.362-4.114-4.74-5.307z" fill="#f5e6c8"/></g><g><path d="M55.995 31.154c-9.152 0-16.598 7.446-16.598 16.598s7.446 16.599 16.598 16.599 16.599-7.446 16.599-16.599c-.001-9.152-7.447-16.598-16.599-16.598z" fill="#f8b26a"/><path d="M55.995 27.846c-10.977 0-19.906 8.93-19.906 19.906s8.93 19.907 19.906 19.907c10.977 0 19.907-8.931 19.907-19.907s-8.931-19.906-19.907-19.906zm0 36.505c-9.152 0-16.598-7.446-16.598-16.599 0-9.152 7.446-16.598 16.598-16.598S72.594 38.6 72.594 47.752c-.001 9.153-7.447 16.599-16.599 16.599z" fill="#f5e6c8"/><path d="M57.584 45.879c-2.413-.908-3.406-1.504-3.406-2.44 0-.795.596-1.59 2.441-1.59 1.013 0 1.845.161 2.516.36.88.262 1.799-.283 2.027-1.173a1.649 1.649 0 0 0-1.193-2.001c-.703-.185-1.54-.319-2.556-.365v-1.107a1.391 1.391 0 0 0-2.782 0v1.305c-3.037.596-4.797 2.554-4.797 5.052 0 2.753 2.072 4.172 5.109 5.194 2.101.71 3.008 1.391 3.008 2.469 0 1.136-1.107 1.76-2.724 1.76a9.576 9.576 0 0 1-3.07-.527c-.901-.307-1.876.189-2.112 1.111l-.034.133a1.638 1.638 0 0 0 1.069 1.966c.987.324 2.186.555 3.409.609v1.306c0 .768.623 1.391 1.391 1.391h.001c.768 0 1.391-.623 1.391-1.391v-1.505c3.263-.568 5.052-2.724 5.052-5.251.001-2.553-1.362-4.114-4.74-5.306z" fill="#f5e6c8"/></g><g><path d="M27.406 28.439c-9.152 0-16.598 7.446-16.598 16.598s7.446 16.599 16.598 16.599 16.599-7.446 16.599-16.599c0-9.152-7.446-16.598-16.599-16.598z" fill="#f8b26a"/><path d="M27.406 25.131C16.43 25.131 7.5 34.061 7.5 45.037s8.93 19.907 19.906 19.907c10.977 0 19.907-8.931 19.907-19.907s-8.93-19.906-19.907-19.906zm0 36.505c-9.152 0-16.598-7.446-16.598-16.599 0-9.152 7.446-16.598 16.598-16.598s16.599 7.446 16.599 16.598-7.446 16.599-16.599 16.599z" fill="#f5e6c8"/><path d="M28.996 43.163c-2.413-.908-3.406-1.504-3.406-2.44 0-.795.596-1.59 2.441-1.59 1.013 0 1.845.161 2.516.36.88.262 1.799-.283 2.027-1.173a1.649 1.649 0 0 0-1.193-2.001c-.703-.185-1.54-.319-2.556-.365v-1.107a1.391 1.391 0 0 0-2.782 0v1.305c-3.037.596-4.797 2.554-4.797 5.052 0 2.753 2.072 4.172 5.109 5.194 2.101.71 3.008 1.391 3.008 2.469 0 1.136-1.107 1.76-2.724 1.76a9.576 9.576 0 0 1-3.07-.527c-.901-.307-1.876.189-2.112 1.111l-.034.133a1.638 1.638 0 0 0 1.069 1.966c.987.324 2.186.555 3.409.609v1.306c0 .768.623 1.391 1.391 1.391h.001c.768 0 1.391-.623 1.391-1.391V53.72c3.263-.568 5.052-2.724 5.052-5.251 0-2.552-1.363-4.113-4.74-5.306z" fill="#f5e6c8"/></g><g><path d="M36.088 54.963c-9.152 0-16.598 7.446-16.598 16.598S26.936 88.16 36.088 88.16s16.599-7.446 16.599-16.599c-.001-9.153-7.447-16.598-16.599-16.598z" fill="#f8b26a"/><path d="M36.088 51.654c-10.976 0-19.906 8.93-19.906 19.906s8.93 19.907 19.906 19.907c10.977 0 19.907-8.931 19.907-19.907s-8.931-19.906-19.907-19.906zm0 36.505c-9.152 0-16.598-7.446-16.598-16.599 0-9.152 7.446-16.598 16.598-16.598s16.599 7.446 16.599 16.598c-.001 9.153-7.447 16.599-16.599 16.599z" fill="#f5e6c8"/><path d="M37.677 69.687c-2.413-.908-3.406-1.504-3.406-2.44 0-.795.596-1.59 2.441-1.59 1.013 0 1.845.161 2.516.36.88.262 1.799-.283 2.027-1.173a1.649 1.649 0 0 0-1.193-2.001c-.703-.185-1.54-.319-2.556-.365v-1.107a1.391 1.391 0 0 0-2.782 0v1.305c-3.037.596-4.797 2.554-4.797 5.052 0 2.753 2.072 4.172 5.109 5.194 2.101.71 3.008 1.391 3.008 2.469 0 1.136-1.107 1.76-2.724 1.76a9.576 9.576 0 0 1-3.07-.527c-.901-.307-1.876.189-2.112 1.111l-.034.133a1.638 1.638 0 0 0 1.069 1.966c.987.324 2.186.555 3.409.609v1.306c0 .768.623 1.391 1.391 1.391h.001c.768 0 1.391-.623 1.391-1.391v-1.505c3.263-.568 5.052-2.724 5.052-5.251.001-2.553-1.362-4.114-4.74-5.306z" fill="#f5e6c8"/></g><g><path d="M62.324 52.223c-9.152 0-16.598 7.446-16.598 16.598S53.172 85.42 62.324 85.42s16.599-7.446 16.599-16.599-7.447-16.598-16.599-16.598z" fill="#f8b26a"/><path d="M62.324 48.914c-10.977 0-19.906 8.93-19.906 19.906s8.93 19.907 19.906 19.907c10.977 0 19.907-8.931 19.907-19.907s-8.93-19.906-19.907-19.906zm0 36.505c-9.152 0-16.598-7.446-16.598-16.599 0-9.152 7.446-16.598 16.598-16.598s16.599 7.446 16.599 16.598c0 9.153-7.447 16.599-16.599 16.599z" fill="#f5e6c8"/><path d="M63.914 66.947c-2.413-.908-3.406-1.504-3.406-2.44 0-.795.596-1.59 2.441-1.59 1.013 0 1.845.161 2.516.36.88.262 1.799-.283 2.027-1.173a1.649 1.649 0 0 0-1.193-2.001c-.703-.185-1.54-.319-2.556-.365v-1.107a1.391 1.391 0 0 0-2.782 0v1.305c-3.037.596-4.797 2.554-4.797 5.052 0 2.753 2.072 4.172 5.109 5.194 2.101.71 3.008 1.391 3.008 2.469 0 1.136-1.107 1.76-2.724 1.76a9.576 9.576 0 0 1-3.07-.527c-.901-.307-1.876.189-2.112 1.111l-.034.133a1.638 1.638 0 0 0 1.069 1.966c.987.324 2.186.555 3.409.609v1.306c0 .768.623 1.391 1.391 1.391h.001c.768 0 1.391-.623 1.391-1.391v-1.505c3.263-.568 5.052-2.724 5.052-5.251 0-2.553-1.363-4.113-4.74-5.306z" fill="#f5e6c8"/></g><metadata xmlns:d="https://loading.io/stock/"><d:name>coin</d:name><d:tags>coin,dollar,money,bucks,currency,price,value</d:tags><d:license>by</d:license><d:slug>399d8z</d:slug></metadata></svg>