<?xml version="1.0"?>
<svg version="1.1" id="圖層_1" xmlns="http://www.w3.org/2000/svg" x="0" y="0" viewBox="0 0 100 100" xml:space="preserve"><path d="M72.104 90.5h-43.14a4.549 4.549 0 0 1-4.549-4.549V22.815a4.549 4.549 0 0 1 4.549-4.549h43.14a4.549 4.549 0 0 1 4.549 4.549V85.95a4.548 4.548 0 0 1-4.549 4.55z" fill="#fff" stroke="#333" stroke-width="3.321" stroke-linecap="round" stroke-miterlimit="10"/><path d="M60.082 11.347h-2.958c-.395-3.289-3.197-5.847-6.59-5.847s-6.195 2.558-6.59 5.847h-2.958a2.352 2.352 0 0 0-2.352 2.352v9.825h23.801v-9.825a2.353 2.353 0 0 0-2.353-2.352zm-9.548-2.526a3.32 3.32 0 0 1 3.214 2.525c.064.256.107.52.107.796a3.324 3.324 0 0 1-3.321 3.321 3.324 3.324 0 0 1-3.321-3.321c0-.276.044-.539.107-.796a3.32 3.32 0 0 1 3.214-2.525z" fill="#e0e0e0"/><g><path fill="none" stroke="#333" stroke-width="3.3" stroke-miterlimit="10" d="M68.179 65.141H32.89"/><path fill="none" stroke="#333" stroke-width="3.3" stroke-miterlimit="10" d="M68.178 73.114H32.89"/><path fill="none" stroke="#333" stroke-width="3.3" stroke-miterlimit="10" d="M49.201 80.756H32.89"/></g><path fill="none" stroke="#849b87" stroke-width="3.321" stroke-miterlimit="10" d="M56.207 37.418l4.885 4.884 7.57-7.569"/><g><path d="M52.362 42.771c0 1.97-.258 3.655-.772 5.055-.515 1.4-1.253 2.543-2.216 3.429s-2.134 1.536-3.512 1.95c-1.378.416-3.019.623-4.922.623h-5.13c-.365 0-.673-.107-.922-.324-.249-.215-.373-.566-.373-1.054V33.723c0-.487.124-.839.373-1.054.249-.217.557-.324.922-.324h5.512c1.914 0 3.538.225 4.872.672 1.334.449 2.457 1.113 3.37 1.992.913.881 1.607 1.968 2.084 3.263.476 1.294.714 2.794.714 4.499zm-4.515.149c0-1.019-.119-1.965-.357-2.839s-.62-1.633-1.146-2.274-1.201-1.143-2.025-1.503c-.824-.359-1.906-.539-3.245-.539h-2.208v14.609h2.274c1.195 0 2.202-.155 3.021-.465a5.062 5.062 0 0 0 2.05-1.402c.548-.626.957-1.403 1.229-2.333s.407-2.015.407-3.254z" fill="#e15b64"/></g><metadata xmlns:d="https://loading.io/stock/"><d:name>d</d:name><d:tags>d,pass,exam,score,test,evaluation,grade,gpa,school,college</d:tags><d:license>by</d:license><d:slug>ott9nt</d:slug></metadata></svg>