<?xml version="1.0"?>
<svg version="1.1" id="圖層_1" xmlns="http://www.w3.org/2000/svg" x="0" y="0" viewBox="0 0 100 100" xml:space="preserve"><path d="M72.104 90.5h-43.14a4.549 4.549 0 0 1-4.549-4.549V22.815a4.549 4.549 0 0 1 4.549-4.549h43.14a4.549 4.549 0 0 1 4.549 4.549V85.95a4.548 4.548 0 0 1-4.549 4.55z" fill="#fff" stroke="#333" stroke-width="3.321" stroke-linecap="round" stroke-miterlimit="10"/><path d="M60.082 11.347h-2.958c-.395-3.289-3.197-5.847-6.59-5.847s-6.195 2.558-6.59 5.847h-2.958a2.352 2.352 0 0 0-2.352 2.352v9.825h23.801v-9.825a2.353 2.353 0 0 0-2.353-2.352zm-9.548-2.526a3.32 3.32 0 0 1 3.214 2.525c.064.256.107.52.107.796a3.324 3.324 0 0 1-3.321 3.321 3.324 3.324 0 0 1-3.321-3.321c0-.276.044-.539.107-.796a3.32 3.32 0 0 1 3.214-2.525z" fill="#e0e0e0"/><g><path fill="none" stroke="#333" stroke-width="3.3" stroke-miterlimit="10" d="M68.179 65.141H32.89"/><path fill="none" stroke="#333" stroke-width="3.3" stroke-miterlimit="10" d="M68.178 73.114H32.89"/><path fill="none" stroke="#333" stroke-width="3.3" stroke-miterlimit="10" d="M49.201 80.756H32.89"/></g><path fill="none" stroke="#849b87" stroke-width="3.321" stroke-miterlimit="10" d="M56.207 37.418l4.885 4.884 7.57-7.569"/><g><path d="M52.528 52.2c.133.398.216.714.249.946s-.011.407-.133.522c-.122.117-.338.188-.647.217-.31.027-.736.041-1.278.041-.564 0-1.004-.008-1.32-.025a3.155 3.155 0 0 1-.722-.1c-.166-.049-.282-.118-.349-.207s-.122-.205-.166-.349l-1.444-4.316H38.65l-1.361 4.2a1.373 1.373 0 0 1-.174.391.71.71 0 0 1-.349.248c-.161.062-.388.103-.681.125-.293.022-.678.033-1.154.033-.509 0-.908-.017-1.195-.05-.288-.033-.487-.113-.598-.241-.111-.127-.149-.307-.116-.539s.116-.542.249-.93l6.624-19.059c.066-.188.144-.34.232-.457.088-.115.229-.204.423-.266.193-.061.462-.1.805-.115.343-.018.797-.025 1.361-.025.653 0 1.173.008 1.561.025.387.016.689.055.905.115.216.062.371.152.465.274.094.122.174.288.241.498l6.64 19.044zm-9.861-15.755h-.017l-3.038 9.131h6.093l-3.038-9.131z" fill="#e15b64"/></g><metadata xmlns:d="https://loading.io/stock/"><d:name>a</d:name><d:tags>a,pass,exam,score,test,evaluation,grade,gpa,school,college</d:tags><d:license>by</d:license><d:slug>o2j2v3</d:slug></metadata></svg>