<?xml version="1.0"?>
<svg version="1.1" id="圖層_1" xmlns="http://www.w3.org/2000/svg" x="0" y="0" viewBox="0 0 100 100" xml:space="preserve"><path d="M72.104 90.5h-43.14a4.549 4.549 0 0 1-4.549-4.549V22.815a4.549 4.549 0 0 1 4.549-4.549h43.14a4.549 4.549 0 0 1 4.549 4.549V85.95a4.548 4.548 0 0 1-4.549 4.55z" fill="#fff" stroke="#333" stroke-width="3.321" stroke-linecap="round" stroke-miterlimit="10"/><path d="M60.082 11.347h-2.958c-.395-3.289-3.197-5.847-6.59-5.847s-6.195 2.558-6.59 5.847h-2.958a2.352 2.352 0 0 0-2.352 2.352v9.825h23.801v-9.825a2.353 2.353 0 0 0-2.353-2.352zm-9.548-2.526a3.32 3.32 0 0 1 3.214 2.525c.064.256.107.52.107.796a3.324 3.324 0 0 1-3.321 3.321 3.324 3.324 0 0 1-3.321-3.321c0-.276.044-.539.107-.796a3.32 3.32 0 0 1 3.214-2.525z" fill="#e0e0e0"/><g><path fill="none" stroke="#333" stroke-width="3.3" stroke-miterlimit="10" d="M68.179 65.141H32.89"/><path fill="none" stroke="#333" stroke-width="3.3" stroke-miterlimit="10" d="M68.178 73.114H32.89"/><path fill="none" stroke="#333" stroke-width="3.3" stroke-miterlimit="10" d="M49.201 80.756H32.89"/></g><path fill="none" stroke="#849b87" stroke-width="3.321" stroke-miterlimit="10" d="M56.207 37.418l4.885 4.884 7.57-7.569"/><g><path d="M49.673 52.117c0 .321-.015.589-.042.806-.027.215-.069.39-.124.522a.671.671 0 0 1-.208.29.445.445 0 0 1-.273.092H38.234c-.365 0-.673-.107-.922-.324-.249-.215-.373-.566-.373-1.054V33.723c0-.487.124-.839.373-1.054.249-.217.557-.324.922-.324h10.725c.1 0 .188.027.266.083a.643.643 0 0 1 .199.29c.055.139.097.316.124.531.027.217.042.49.042.822 0 .31-.015.572-.042.789-.027.215-.069.39-.124.522a.714.714 0 0 1-.199.29.414.414 0 0 1-.266.092h-7.67v5.246h6.491c.1 0 .19.03.273.092a.676.676 0 0 1 .208.281c.055.128.097.299.124.516.027.215.042.479.042.788 0 .321-.015.587-.042.797s-.069.379-.124.507c-.056.127-.125.218-.208.273s-.174.083-.273.083h-6.491v6.06h7.736c.1 0 .19.03.273.092a.671.671 0 0 1 .208.29c.055.133.097.308.124.522.028.217.043.485.043.806z" fill="#e15b64"/></g><metadata xmlns:d="https://loading.io/stock/"><d:name>e</d:name><d:tags>e,pass,exam,score,test,evaluation,grade,gpa,school,college</d:tags><d:license>by</d:license><d:slug>pbh2bx</d:slug></metadata></svg>