<?xml version="1.0"?>
<svg version="1.1" id="圖層_1" xmlns="http://www.w3.org/2000/svg" x="0" y="0" viewBox="0 0 100 100" xml:space="preserve"><path d="M72.104 90.5h-43.14a4.549 4.549 0 0 1-4.549-4.549V22.815a4.549 4.549 0 0 1 4.549-4.549h43.14a4.549 4.549 0 0 1 4.549 4.549V85.95a4.548 4.548 0 0 1-4.549 4.55z" fill="#fff" stroke="#333" stroke-width="3.321" stroke-linecap="round" stroke-miterlimit="10"/><path d="M60.082 11.347h-2.958c-.395-3.289-3.197-5.847-6.59-5.847s-6.195 2.558-6.59 5.847h-2.958a2.352 2.352 0 0 0-2.352 2.352v9.825h23.801v-9.825a2.353 2.353 0 0 0-2.353-2.352zm-9.548-2.526a3.32 3.32 0 0 1 3.214 2.525c.064.256.107.52.107.796a3.324 3.324 0 0 1-3.321 3.321 3.324 3.324 0 0 1-3.321-3.321c0-.276.044-.539.107-.796a3.32 3.32 0 0 1 3.214-2.525z" fill="#e0e0e0"/><g><path fill="none" stroke="#333" stroke-width="3.3" stroke-miterlimit="10" d="M68.179 65.141H32.89"/><path fill="none" stroke="#333" stroke-width="3.3" stroke-miterlimit="10" d="M68.178 73.114H32.89"/><path fill="none" stroke="#333" stroke-width="3.3" stroke-miterlimit="10" d="M49.201 80.756H32.89"/></g><path fill="none" stroke="#849b87" stroke-width="3.321" stroke-miterlimit="10" d="M56.207 37.418l4.885 4.884 7.57-7.569"/><g><path d="M51.258 47.386c0 .764-.105 1.455-.315 2.075-.211.62-.501 1.168-.872 1.644s-.813.886-1.328 1.229-1.082.625-1.701.847c-.62.222-1.281.385-1.984.489a15.97 15.97 0 0 1-2.349.158h-5.711c-.365 0-.673-.107-.922-.324-.249-.215-.373-.566-.373-1.054V33.723c0-.487.124-.839.373-1.054.249-.217.557-.324.922-.324h5.396c1.316 0 2.432.11 3.345.332s1.683.557 2.308 1.004c.625.449 1.104 1.016 1.437 1.702s.498 1.494.498 2.424c0 .521-.066 1.01-.199 1.47a4.421 4.421 0 0 1-.581 1.253c-.255.376-.567.708-.938.996s-.794.521-1.27.697c.608.11 1.17.305 1.685.581s.963.634 1.345 1.07c.382.438.684.949.905 1.536.217.587.329 1.245.329 1.976zm-5.645-9.048c0-.432-.066-.819-.199-1.162s-.332-.628-.598-.854c-.266-.228-.601-.401-1.005-.523s-.943-.183-1.618-.183h-2.208v5.578h2.44c.631 0 1.134-.075 1.511-.224.376-.15.688-.354.938-.615.249-.26.435-.564.557-.912.121-.35.182-.717.182-1.105zm1.113 9.197c0-.498-.083-.943-.249-1.337a2.55 2.55 0 0 0-.73-.987c-.321-.266-.73-.471-1.229-.614s-1.146-.216-1.942-.216h-2.59v6.109h3.154c.608 0 1.12-.063 1.535-.19a3.169 3.169 0 0 0 1.079-.564 2.6 2.6 0 0 0 .714-.93 2.99 2.99 0 0 0 .258-1.271z" fill="#e15b64"/></g><metadata xmlns:d="https://loading.io/stock/"><d:name>b</d:name><d:tags>b,pass,exam,score,test,evaluation,grade,gpa,school,college</d:tags><d:license>by</d:license><d:slug>nl1l65</d:slug></metadata></svg>