<?xml version="1.0"?>
<svg version="1.1" id="圖層_1" xmlns="http://www.w3.org/2000/svg" x="0" y="0" viewBox="0 0 100 100" xml:space="preserve"><path d="M72.104 90.5h-43.14a4.549 4.549 0 0 1-4.549-4.549V22.815a4.549 4.549 0 0 1 4.549-4.549h43.14a4.549 4.549 0 0 1 4.549 4.549V85.95a4.548 4.548 0 0 1-4.549 4.55z" fill="#fff" stroke="#333" stroke-width="3.321" stroke-linecap="round" stroke-miterlimit="10"/><path d="M60.082 11.347h-2.958c-.395-3.289-3.197-5.847-6.59-5.847s-6.195 2.558-6.59 5.847h-2.958a2.352 2.352 0 0 0-2.352 2.352v9.825h23.801v-9.825a2.353 2.353 0 0 0-2.353-2.352zm-9.548-2.526a3.32 3.32 0 0 1 3.214 2.525c.064.256.107.52.107.796a3.324 3.324 0 0 1-3.321 3.321 3.324 3.324 0 0 1-3.321-3.321c0-.276.044-.539.107-.796a3.32 3.32 0 0 1 3.214-2.525z" fill="#e0e0e0"/><g><path fill="none" stroke="#333" stroke-width="3.3" stroke-miterlimit="10" d="M68.179 65.141H32.89"/><path fill="none" stroke="#333" stroke-width="3.3" stroke-miterlimit="10" d="M68.178 73.114H32.89"/><path fill="none" stroke="#333" stroke-width="3.3" stroke-miterlimit="10" d="M49.201 80.756H32.89"/></g><path fill="none" stroke="#849b87" stroke-width="3.321" stroke-miterlimit="10" d="M56.207 37.418l4.885 4.884 7.57-7.569"/><g><path d="M51.092 50.573c0 .276-.009.512-.025.705-.017.194-.041.36-.074.498a1.4 1.4 0 0 1-.133.357c-.056.1-.145.213-.266.34-.122.128-.357.291-.706.49s-.774.391-1.278.572a11.356 11.356 0 0 1-3.827.64c-1.473 0-2.801-.227-3.984-.681a7.873 7.873 0 0 1-3.021-2.033c-.83-.902-1.467-2.028-1.909-3.379-.443-1.351-.664-2.922-.664-4.715 0-1.826.243-3.447.73-4.864.486-1.417 1.167-2.606 2.042-3.569.874-.963 1.923-1.693 3.146-2.191s2.57-.747 4.043-.747c.598 0 1.173.05 1.727.149.553.1 1.064.229 1.535.391.471.16.894.346 1.271.556.376.21.639.39.788.54.149.148.252.273.308.373.055.1.1.227.133.382s.058.338.074.548.025.471.025.78c0 .332-.012.614-.033.847a2.228 2.228 0 0 1-.116.564.78.78 0 0 1-.199.315.4.4 0 0 1-.266.1c-.166 0-.377-.097-.631-.29-.255-.194-.584-.41-.988-.648a8.087 8.087 0 0 0-1.444-.646c-.559-.194-1.226-.291-2-.291-.853 0-1.613.174-2.283.523a4.882 4.882 0 0 0-1.71 1.494c-.471.646-.827 1.43-1.07 2.349-.244.919-.365 1.953-.365 3.104 0 1.262.13 2.354.39 3.279.26.924.631 1.685 1.112 2.282s1.063 1.043 1.743 1.337c.681.293 1.447.439 2.3.439.774 0 1.444-.092 2.009-.273.564-.184 1.048-.385 1.452-.606s.736-.421.996-.598.462-.266.606-.266c.11 0 .199.022.266.066s.121.133.166.266c.044.133.077.318.1.556.018.238.03.557.03.955z" fill="#e15b64"/></g><metadata xmlns:d="https://loading.io/stock/"><d:name>c</d:name><d:tags>c,pass,exam,score,test,evaluation,grade,gpa,school,college</d:tags><d:license>by</d:license><d:slug>mvatp5</d:slug></metadata></svg>