<?xml version="1.0"?><svg version="1.1" id="圖層_1" xmlns="http://www.w3.org/2000/svg" x="0" y="0" viewBox="0 0 100 100" xml:space="preserve"><circle cx="50" cy="50" r="40" fill="#333"/><g><path d="M50 32.066a1.007 1.007 0 0 1-1.006-1.006v-4.054a1.007 1.007 0 0 1 2.012 0v4.054c0 .555-.451 1.006-1.006 1.006z" fill="#fff"/></g><g><path d="M42.036 34.2c-.347 0-.686-.18-.872-.503l-2.027-3.511a1.006 1.006 0 1 1 1.742-1.006l2.027 3.511a1.006 1.006 0 0 1-.87 1.509z" fill="#fff"/></g><g><path d="M36.204 40.031c-.171 0-.344-.044-.502-.135l-3.511-2.027a1.006 1.006 0 1 1 1.006-1.742l3.511 2.027a1.006 1.006 0 0 1-.504 1.877z" fill="#fff"/></g><g><path d="M34.071 47.995h-4.054a1.007 1.007 0 0 1 0-2.012h4.054a1.007 1.007 0 0 1 0 2.012z" fill="#fff"/></g><g><path d="M32.695 57.986a1.005 1.005 0 0 1-.504-1.877l3.511-2.027a1.007 1.007 0 0 1 1.006 1.742l-3.511 2.027a.994.994 0 0 1-.502.135z" fill="#fff"/></g><g><path d="M67.305 57.986c-.171 0-.344-.044-.502-.135l-3.511-2.027a1.006 1.006 0 1 1 1.006-1.742l3.511 2.027a1.006 1.006 0 0 1-.504 1.877z" fill="#fff"/></g><g><path d="M69.983 47.995h-4.054a1.007 1.007 0 0 1 0-2.012h4.054a1.007 1.007 0 0 1 0 2.012z" fill="#fff"/></g><g><path d="M63.796 40.031a1.005 1.005 0 0 1-.504-1.877l3.511-2.027a1.006 1.006 0 1 1 1.006 1.742l-3.511 2.027a1.004 1.004 0 0 1-.502.135z" fill="#fff"/></g><g><path d="M57.964 34.2a1.006 1.006 0 0 1-.87-1.509l2.027-3.511a1.006 1.006 0 0 1 1.742 1.006l-2.027 3.511a1.006 1.006 0 0 1-.872.503z" fill="#fff"/></g><g><path d="M55.485 61.691a1.007 1.007 0 0 1-.944-1.354 16.865 16.865 0 0 1 3.526-5.748 11.007 11.007 0 0 0 2.99-7.558c0-3.084-1.238-5.946-3.487-8.059a10.972 10.972 0 0 0-8.279-2.976c-5.553.346-9.993 4.795-10.327 10.35a10.988 10.988 0 0 0 2.852 8.117 18.567 18.567 0 0 1 3.634 5.857 1.006 1.006 0 1 1-1.879.721 16.564 16.564 0 0 0-3.244-5.224 12.98 12.98 0 0 1-3.373-9.591c.395-6.568 5.644-11.829 12.211-12.237 3.649-.227 7.126 1.022 9.782 3.518a13.12 13.12 0 0 1 4.121 9.525c0 3.332-1.255 6.505-3.534 8.935a14.878 14.878 0 0 0-3.106 5.068 1.006 1.006 0 0 1-.943.656z" fill="#fff"/></g><g><path d="M56.426 64.224H43.574a1.007 1.007 0 0 1 0-2.012h12.852a1.007 1.007 0 0 1 0 2.012z" fill="#fff"/></g><g><path d="M56.426 67.045H43.574a1.007 1.007 0 0 1 0-2.012h12.852a1.007 1.007 0 0 1 0 2.012z" fill="#fff"/></g><g><path d="M56.426 69.866H43.574a1.007 1.007 0 0 1 0-2.012h12.852a1.007 1.007 0 0 1 0 2.012z" fill="#fff"/></g><g><path d="M52.381 74H47.62a2.713 2.713 0 0 1-2.71-2.71 1.007 1.007 0 0 1 2.012 0c0 .385.313.698.698.698h4.761a.699.699 0 0 0 .698-.698 1.007 1.007 0 0 1 2.012 0 2.713 2.713 0 0 1-2.71 2.71z" fill="#fff"/></g><metadata xmlns:d="https://loading.io/stock/">
<d:name>bulb</d:name>
<d:tags>bulb,light,creative,creativity,idea,brainstorm,bright,luminance,think,smart,thought</d:tags>
<d:license>by</d:license>
<d:slug>n1fe0t</d:slug>
</metadata></svg>