<?xml version="1.0" encoding="utf-8"?>
<svg xml:space="preserve" viewBox="0 0 100 100" y="0" x="0" xmlns="http://www.w3.org/2000/svg" id="圖層_1" version="1.1" width="200px" height="200px" xmlns:xlink="http://www.w3.org/1999/xlink" style="width:100%;height:100%;background-size:initial;background-repeat-y:initial;background-repeat-x:initial;background-position-y:initial;background-position-x:initial;background-origin:initial;background-image:initial;background-color:transparent;background-clip:initial;background-attachment:initial;animation-play-state:paused" >
    <g class="ldl-scale" style="transform-origin:50% 50%;transform:rotate(0deg) scale(0.8, 0.8);animation-play-state:paused" >
        <circle fill="#333" r="40" cy="50" cx="50" style="fill:rgb(51, 51, 51);animation-play-state:paused" ></circle>
        <path fill="#e15b64" d="M29.4 70.8c-1.8-1.1-2.4-3.5-1.3-5.3 4.9-7.8 10.7-14.8 17-21.1 6.4-6.3 13.3-12 20.4-17.1 1.6-1.2 3.8-.8 5 .9 1.1 1.6.9 3.8-.6 5.1-6.5 5.5-12.6 11.4-18.1 17.8-5.4 6.3-10.1 13.1-13.9 20.3-1 1.8-3.2 2.5-4.9 1.5l-3.6-2.1z" style="fill:rgb(225, 91, 100);animation-play-state:paused" ></path>
        <path fill="#e15b64" d="M66.8 69c-1.8 1.1-4.1.5-5.2-1.3-3.7-6-8.5-11.5-13.8-16.6-5.4-5.2-11.4-9.9-17.7-14.4a3.82 3.82 0 0 1-1-5.2l.7-1.1c1.1-1.8 3.5-2.3 5.3-1.2 6.8 4.2 13.4 8.7 19.7 13.9 6.2 5.2 12.1 11.1 17 17.9 1.3 1.8.8 4.4-1.2 5.6L66.8 69z" style="fill:rgb(225, 91, 100);animation-play-state:paused" ></path>
    </g>
</svg>