<?xml version="1.0"?><svg xmlns="http://www.w3.org/2000/svg" viewBox="0 0 100 100"><g><path d="M57.155 37.958l-2.081-.862a1.827 1.827 0 0 1-1.133-1.805c.066-.929.063-1.856-.003-2.774a1.825 1.825 0 0 1 1.132-1.81l2.085-.863a1.846 1.846 0 0 0 .999-2.413l-2.384-5.756a1.846 1.846 0 0 0-2.413-.999l-2.085.863a1.826 1.826 0 0 1-2.081-.48 19.411 19.411 0 0 0-1.959-1.963 1.825 1.825 0 0 1-.475-2.077l.862-2.081a1.847 1.847 0 0 0-.999-2.413l-5.756-2.384a1.847 1.847 0 0 0-2.413.999l-.862 2.081a1.827 1.827 0 0 1-1.805 1.133 19.455 19.455 0 0 0-2.774.003 1.825 1.825 0 0 1-1.81-1.132l-.863-2.085a1.846 1.846 0 0 0-2.413-.999l-5.756 2.384a1.846 1.846 0 0 0-.999 2.413l.863 2.085a1.825 1.825 0 0 1-.48 2.081 19.411 19.411 0 0 0-1.963 1.959 1.825 1.825 0 0 1-2.077.475l-2.081-.862a1.847 1.847 0 0 0-2.413.999l-2.384 5.756c-.39.942.057 2.023.999 2.413l2.081.862a1.827 1.827 0 0 1 1.133 1.805c-.066.929-.063 1.856.003 2.774a1.825 1.825 0 0 1-1.132 1.81l-2.085.863a1.846 1.846 0 0 0-.999 2.413l2.384 5.756a1.846 1.846 0 0 0 2.413.999l2.085-.863a1.825 1.825 0 0 1 2.081.48 19.411 19.411 0 0 0 1.959 1.963c.591.513.775 1.354.475 2.077l-.862 2.081c-.39.942.057 2.023.999 2.413l5.756 2.384a1.847 1.847 0 0 0 2.413-.999l.862-2.081a1.827 1.827 0 0 1 1.805-1.133c.929.066 1.856.063 2.774-.003a1.825 1.825 0 0 1 1.81 1.132l.863 2.085a1.846 1.846 0 0 0 2.413.999l5.756-2.384a1.846 1.846 0 0 0 .999-2.413l-.863-2.085a1.826 1.826 0 0 1 .48-2.081 19.411 19.411 0 0 0 1.963-1.959 1.825 1.825 0 0 1 2.077-.475l2.081.862a1.847 1.847 0 0 0 2.413-.999l2.384-5.756a1.847 1.847 0 0 0-.999-2.413zM34.394 48.48c-8.052 0-14.579-6.527-14.579-14.579s6.527-14.579 14.579-14.579 14.579 6.527 14.579 14.579S42.446 48.48 34.394 48.48z" fill="#666"/><path d="M34.394 19.321c-8.052 0-14.579 6.527-14.579 14.579s6.527 14.58 14.579 14.58 14.579-6.527 14.579-14.579-6.527-14.58-14.579-14.58zm0 23.629a9.05 9.05 0 1 1 0-18.098 9.05 9.05 0 0 1 0 18.098z" fill="#323232"/></g><g><path d="M79.048 74.299l-1.647-.682a1.444 1.444 0 0 1-.896-1.428 15.46 15.46 0 0 0-.002-2.195 1.443 1.443 0 0 1 .896-1.432l1.649-.683a1.46 1.46 0 0 0 .791-1.909l-1.886-4.554a1.46 1.46 0 0 0-1.909-.791l-1.649.683c-.574.238-1.24.09-1.646-.379a15.353 15.353 0 0 0-1.55-1.553 1.444 1.444 0 0 1-.376-1.644l.682-1.647a1.46 1.46 0 0 0-.791-1.909L66.16 52.29a1.46 1.46 0 0 0-1.909.791l-.682 1.647c-.237.572-.81.94-1.428.896a15.46 15.46 0 0 0-2.195.002 1.443 1.443 0 0 1-1.432-.896l-.683-1.649a1.46 1.46 0 0 0-1.909-.791l-4.554 1.886a1.46 1.46 0 0 0-.791 1.909l.683 1.649c.238.574.09 1.24-.379 1.646-.551.476-1.07.994-1.553 1.55a1.444 1.444 0 0 1-1.644.376l-1.647-.682a1.46 1.46 0 0 0-1.909.791L42.24 65.97a1.46 1.46 0 0 0 .791 1.909l1.647.682c.572.237.94.81.896 1.428a15.46 15.46 0 0 0 .002 2.195 1.443 1.443 0 0 1-.896 1.432l-1.649.683a1.46 1.46 0 0 0-.791 1.909l1.886 4.554a1.46 1.46 0 0 0 1.909.791l1.649-.683a1.445 1.445 0 0 1 1.646.379c.476.551.994 1.07 1.55 1.553.468.406.613 1.071.376 1.644l-.682 1.647a1.46 1.46 0 0 0 .791 1.909l4.554 1.886a1.46 1.46 0 0 0 1.909-.791l.682-1.647c.237-.572.81-.94 1.428-.896.735.052 1.468.05 2.195-.002a1.443 1.443 0 0 1 1.432.896l.683 1.649a1.46 1.46 0 0 0 1.909.791l4.554-1.886a1.46 1.46 0 0 0 .791-1.909l-.683-1.649a1.445 1.445 0 0 1 .379-1.646c.551-.476 1.07-.994 1.553-1.55a1.444 1.444 0 0 1 1.644-.376l1.647.682a1.46 1.46 0 0 0 1.909-.791l1.886-4.554a1.46 1.46 0 0 0-.789-1.91zm-18.009 8.326c-6.371 0-11.536-5.165-11.536-11.536s5.165-11.536 11.536-11.536 11.536 5.165 11.536 11.536-5.164 11.536-11.536 11.536z" fill="#666"/><path d="M61.039 59.553c-6.371 0-11.536 5.165-11.536 11.536s5.165 11.536 11.536 11.536 11.536-5.165 11.536-11.536-5.164-11.536-11.536-11.536zm0 18.696a7.16 7.16 0 1 1 0-14.32 7.16 7.16 0 0 1 0 14.32z" fill="#323232"/></g><g><path d="M88.623 35.278l-1.256-.194a1.03 1.03 0 0 1-.862-.838 10.945 10.945 0 0 0-.372-1.52 1.03 1.03 0 0 1 .379-1.144l1.027-.752c.464-.34.565-.992.225-1.456l-2.076-2.837a1.042 1.042 0 0 0-1.456-.225l-1.028.752a1.03 1.03 0 0 1-1.205.015 10.961 10.961 0 0 0-1.337-.815 1.029 1.029 0 0 1-.538-1.075l.194-1.256a1.042 1.042 0 0 0-.87-1.189l-3.474-.538a1.042 1.042 0 0 0-1.189.87l-.194 1.256a1.03 1.03 0 0 1-.838.862c-.518.088-1.026.213-1.52.372a1.03 1.03 0 0 1-1.144-.379l-.752-1.028a1.042 1.042 0 0 0-1.456-.225l-2.837 2.076c-.464.34-.565.992-.225 1.456l.752 1.027c.262.358.272.844.015 1.205-.301.423-.574.869-.815 1.337a1.029 1.029 0 0 1-1.075.538l-1.256-.194a1.042 1.042 0 0 0-1.189.87l-.538 3.474a1.042 1.042 0 0 0 .87 1.189l1.256.194c.437.068.788.403.862.838.088.518.213 1.026.372 1.52a1.03 1.03 0 0 1-.379 1.144l-1.028.752c-.464.34-.565.992-.225 1.456l2.076 2.837c.34.464.992.565 1.456.225L68 45.126a1.03 1.03 0 0 1 1.205-.015c.423.301.869.574 1.337.815.393.202.606.639.538 1.075l-.194 1.256a1.042 1.042 0 0 0 .87 1.189l3.474.538a1.042 1.042 0 0 0 1.189-.87l.194-1.256a1.03 1.03 0 0 1 .838-.862 10.945 10.945 0 0 0 1.52-.372 1.03 1.03 0 0 1 1.144.379l.752 1.028c.34.464.992.565 1.456.225l2.837-2.076c.464-.34.565-.992.225-1.456l-.752-1.028a1.03 1.03 0 0 1-.015-1.205c.301-.423.574-.869.815-1.337a1.029 1.029 0 0 1 1.075-.538l1.256.194a1.042 1.042 0 0 0 1.189-.87l.538-3.474a1.037 1.037 0 0 0-.868-1.188zm-11.072 8.811c-4.415 1.076-8.866-1.63-9.942-6.045s1.63-8.866 6.045-9.942c4.415-1.076 8.866 1.63 9.942 6.045s-1.63 8.866-6.045 9.942z" fill="#666"/><path d="M73.654 28.102c-4.415 1.076-7.121 5.527-6.045 9.942s5.527 7.121 9.942 6.045c4.415-1.076 7.121-5.527 6.045-9.942s-5.527-7.121-9.942-6.045zm3.158 12.955a5.107 5.107 0 1 1-2.419-9.923 5.107 5.107 0 0 1 2.419 9.923z" fill="#323232"/></g><metadata xmlns:d="https://loading.io/stock/">
<d:name>gear</d:name>
<d:tags>gear,config,setting,manage,machine,operational,function,active,work,progress,procedure</d:tags>
<d:license>by</d:license>
<d:slug>obypnd</d:slug>
</metadata></svg>