<?xml version="1.0"?>
<svg version="1.1" id="圖層_1" xmlns="http://www.w3.org/2000/svg" x="0" y="0" viewBox="0 0 100 100" xml:space="preserve"><path d="M22.2 84.9c-8.1 0-14.7-6.6-14.7-14.7v-9.7c0-8.1 6.6-14.7 14.7-14.7v39.1z"/><path d="M77.8 84.9v-39c8.1 0 14.7 6.6 14.7 14.7v9.7c0 8.1-6.6 14.6-14.7 14.6z"/><path d="M26.6 80.1V45.9c0-13.1 10.7-24.2 23.8-24 12.7.2 23 10.6 23 23.4v34.8c0 2.7 2.2 4.9 4.9 4.9V46c0-15.4-12.1-28.5-27.5-28.9-16-.5-29.2 12.4-29.2 28.3V85c2.8-.1 5-2.3 5-4.9z"/><metadata xmlns:d="https://loading.io/stock/"><d:name>headset</d:name><d:tags>earphone,earbud,music,listen,radio,headphone,headset,web application</d:tags><d:license>pro</d:license><d:slug>6et4m5</d:slug></metadata></svg>