<?xml version="1.0"?>
<svg version="1.1" id="圖層_1" xmlns="http://www.w3.org/2000/svg" x="0" y="0" viewBox="0 0 100 100" xml:space="preserve"><path d="M85.713 31.761l-9.801 2.923a30.106 30.106 0 0 0-3.261-4.478l5.813-8.425a40.116 40.116 0 0 0-10.269-7.46l-6.209 8.123a29.774 29.774 0 0 0-5.273-1.708l-.249-10.23c-2.068-.329-4.187-.506-6.347-.506s-4.279.177-6.346.506l-.249 10.23c-1.826.41-3.59.982-5.273 1.708l-6.209-8.123a40.11 40.11 0 0 0-10.269 7.46l5.813 8.425a30.035 30.035 0 0 0-3.261 4.478l-9.801-2.923a39.7 39.7 0 0 0-3.929 12.069l9.657 3.4c-.084.913-.132 1.836-.132 2.77s.049 1.857.132 2.77l-9.657 3.4a39.7 39.7 0 0 0 3.929 12.069l9.801-2.923a30.106 30.106 0 0 0 3.261 4.478l-5.813 8.425a40.116 40.116 0 0 0 10.269 7.46l6.209-8.123a29.774 29.774 0 0 0 5.273 1.708l.249 10.23c2.067.329 4.186.506 6.346.506s4.279-.177 6.346-.506l.249-10.23c1.826-.41 3.59-.982 5.273-1.708l6.209 8.123a40.11 40.11 0 0 0 10.269-7.46l-5.813-8.425a30.035 30.035 0 0 0 3.261-4.478l9.801 2.923a39.7 39.7 0 0 0 3.929-12.069l-9.657-3.4c.084-.913.132-1.836.132-2.77s-.049-1.857-.132-2.77l9.657-3.4a39.67 39.67 0 0 0-3.928-12.069zM50 70c-11.046 0-20-8.954-20-20s8.954-20 20-20 20 8.954 20 20-8.954 20-20 20z" fill="#333"/><path d="M60.678 60.884c3.567-3.567 4.981-8.46 4.268-13.09-.091-.589-.822-.821-1.243-.4l-9.189 9.188a2.411 2.411 0 0 1-2.329.624l-6.049-1.621a2.412 2.412 0 0 1-1.705-1.705l-1.621-6.049a2.411 2.411 0 0 1 .624-2.329l9.188-9.188c.423-.423.188-1.154-.403-1.245-5.023-.771-10.353.959-13.965 5.224-4.063 4.798-4.622 11.62-1.764 17.001L11.626 78.386a7.077 7.077 0 1 0 10.003 10.003l21.089-24.86c5.767 3.09 13.095 2.22 17.96-2.645zM14.314 85.702a3.333 3.333 0 1 1 4.715-4.713 3.333 3.333 0 0 1-4.715 4.713z" fill="#f8b26a"/><metadata xmlns:d="https://loading.io/stock/"><d:name>wrench</d:name><d:tags>config,setting,machinary,profile,setup,edit,asembly,wrench,gear</d:tags><d:license>by</d:license><d:slug>6d8ogq</d:slug></metadata></svg>